<?xml version="1.0" standalone="no"?>
<!DOCTYPE svg PUBLIC "-//W3C//DTD SVG 20010904//EN"
 "http://www.w3.org/TR/2001/REC-SVG-20010904/DTD/svg10.dtd">
<svg version="1.0" xmlns="http://www.w3.org/2000/svg"
 width="300.000000pt" height="300.000000pt" viewBox="0 0 300.000000 300.000000"
 preserveAspectRatio="xMidYMid meet">
<metadata>
Created by potrace 1.11, written by Peter Selinger 2001-2013
</metadata>
<g transform="translate(0.000000,300.000000) scale(0.100000,-0.100000)"
fill="#000000" stroke="none">
<path d="M1145 2823 c-225 -18 -385 -49 -442 -84 -46 -29 -47 -76 -1 -114 32
-27 34 -27 152 -24 l119 4 10 -30 c5 -16 13 -241 17 -500 5 -259 15 -572 24
-697 20 -295 22 -483 6 -813 -14 -295 -10 -336 35 -381 31 -31 96 -33 124 -5
42 42 45 83 32 369 -7 147 -19 425 -28 617 -8 193 -16 566 -17 830 -2 264 -6
517 -11 563 l-8 82 102 0 c100 0 103 1 132 29 48 48 34 112 -31 146 -28 14
-106 17 -215 8z"/>
<path d="M2073 2495 c-91 -20 -195 -78 -253 -142 -86 -94 -145 -252 -176 -467
-21 -150 -31 -884 -15 -1089 28 -340 110 -536 253 -606 107 -51 265 -74 351
-50 117 32 145 169 41 198 -29 8 -41 7 -60 -6 -19 -12 -41 -14 -94 -11 -128
10 -204 80 -256 241 -25 75 -27 100 -31 277 -8 327 13 924 36 1075 35 220 86
349 157 396 24 16 48 19 137 19 101 0 109 2 132 25 25 24 33 73 19 110 -17 44
-118 57 -241 30z"/>
</g>
</svg>
