<?xml version="1.0" standalone="no"?>
<!DOCTYPE svg PUBLIC "-//W3C//DTD SVG 20010904//EN"
 "http://www.w3.org/TR/2001/REC-SVG-20010904/DTD/svg10.dtd">
<svg version="1.0" xmlns="http://www.w3.org/2000/svg"
 width="318.000000pt" height="318.000000pt" viewBox="0 0 318.000000 318.000000"
 preserveAspectRatio="xMidYMid meet">
<metadata>
Created by potrace 1.11, written by Peter Selinger 2001-2013
</metadata>
<g transform="translate(0.000000,318.000000) scale(0.100000,-0.100000)"
fill="#000000" stroke="none">
<path d="M1248 2915 c-2 -1 -46 -6 -98 -9 -52 -4 -104 -9 -115 -11 -11 -3 -38
-7 -60 -10 -71 -10 -174 -47 -199 -72 -20 -20 -23 -29 -16 -55 13 -42 68 -79
110 -73 66 10 189 15 193 8 17 -27 21 -96 23 -378 3 -299 11 -612 19 -685 2
-19 6 -91 10 -160 4 -69 8 -141 10 -160 8 -74 8 -412 0 -545 -5 -77 -9 -203
-9 -280 -1 -161 13 -209 69 -231 52 -19 93 -1 117 53 19 42 20 58 13 227 -3
99 -8 213 -10 251 -4 65 -6 122 -20 465 -3 69 -8 184 -11 255 -4 72 -7 339 -9
595 -2 419 -8 601 -22 622 -5 10 1 10 113 8 85 -1 93 1 123 25 42 36 43 82 2
127 -29 33 -30 33 -130 34 -55 1 -102 0 -103 -1z"/>
<path d="M2190 2593 c-49 -9 -116 -35 -177 -69 -169 -94 -255 -288 -290 -654
-10 -109 -11 -977 0 -1050 4 -30 10 -73 13 -95 11 -83 55 -230 87 -288 63
-120 138 -171 296 -203 85 -17 181 -15 231 4 64 25 102 121 65 162 -26 29 -74
40 -105 24 -41 -20 -82 -22 -140 -7 -108 27 -168 93 -214 231 -32 95 -36 142
-36 362 1 279 17 866 23 878 3 4 8 34 11 67 11 93 13 107 26 171 16 79 52 173
85 222 39 59 74 72 192 72 71 0 104 4 120 15 50 35 46 123 -7 150 -28 14 -120
18 -180 8z"/>
</g>
</svg>
